<svg xmlns="http://www.w3.org/2000/svg" xmlns:xlink="http://www.w3.org/1999/xlink" version="1.1" id="Layer_1" x="0px" y="0px" width="512px" height="512px" viewBox="0 0 512 512" enable-background="new 0 0 512 512" xml:space="preserve" xmlns:xml="http://www.w3.org/XML/1998/namespace">
<g>
	<g>
		<rect x="119.49" y="55.307" fill="#CCCBCB" width="296.021" height="57.97"/>
		<rect x="45.485" y="55.307" fill="#CCCBCB" width="59.204" height="57.97"/>
		<rect x="119.49" y="128.078" fill="#CCCBCB" width="296.021" height="57.971"/>
		<rect x="45.485" y="128.078" fill="#CCCBCB" width="59.204" height="57.971"/>
		<rect x="119.49" y="200.85" fill="#CCCBCB" width="296.021" height="57.971"/>
		<rect x="45.485" y="200.85" fill="#CCCBCB" width="59.204" height="57.971"/>
		<rect x="119.49" y="272.388" fill="#CCCBCB" width="296.021" height="57.971"/>
		<rect x="45.485" y="272.388" fill="#CCCBCB" width="59.204" height="57.971"/>
	</g>
	<g>
		<g>
			<g>
				<path fill="#427585" d="m 252.699 221.205 c -52.549 0 -95.149 42.599 -95.149 95.148 s 42.6 95.149 95.149 95.149 c 52.549 0 95.148 -42.6 95.148 -95.149 s -42.599 -95.148 -95.148 -95.148 z m 0 146.711 c -28.477 0 -51.563 -23.085 -51.563 -51.563 c 0 -28.477 23.085 -51.562 51.563 -51.562 c 28.477 0 51.562 23.085 51.562 51.562 c -1.90735e-05 28.478 -23.085 51.563 -51.562 51.563 z"/>
			</g>
		</g>
		<g>
			<path fill="#427585" d="m 285.648 369.771 v 62.665 c 0 13.397 -10.86 24.257 -24.257 24.257 h -17.384 c -13.397 0 -24.257 -10.86 -24.257 -24.257 v -62.665"/>
			<path fill="#427585" d="m 219.749 262.936 v -62.664 c 0 -13.397 10.86 -24.257 24.257 -24.257 h 17.384 c 13.397 0 24.257 10.86 24.257 24.257 v 62.664"/>
		</g>
		<g>
			<path fill="#427585" d="m 306.866 283.404 h 62.665 c 13.397 0 24.257 10.86 24.257 24.257 v 17.384 c 0 13.397 -10.86 24.257 -24.257 24.257 h -62.665"/>
			<path fill="#427585" d="m 198.531 349.303 h -62.665 c -13.396 0 -24.257 -10.86 -24.257 -24.257 v -17.384 c 0 -13.397 10.861 -24.257 24.257 -24.257 h 62.665"/>
		</g>
		<path fill="#427585" d="m 265.245 254.02 l 44.311 -44.311 c 9.473 -9.473 24.832 -9.473 34.305 0 l 12.293 12.293 c 9.473 9.473 9.473 24.832 0 34.305 l -44.311 44.311"/>
		<path fill="#427585" d="m 311.842 331.209 l 44.311 44.311 c 9.473 9.473 9.473 24.832 0 34.305 l -12.293 12.293 c -9.473 9.473 -24.832 9.473 -34.305 0 l -44.311 -44.311"/>
		<path fill="#427585" d="m 192.555 300.617 l -44.311 -44.311 c -9.473 -9.473 -9.473 -24.832 0 -34.305 l 12.293 -12.293 c 9.473 -9.473 24.832 -9.473 34.305 0 l 44.311 44.311"/>
		<path fill="#427585" d="m 239.153 377.807 l -44.311 44.311 c -9.473 9.473 -24.832 9.473 -34.305 0 l -12.293 -12.293 c -9.473 -9.473 -9.473 -24.832 0 -34.305 l 44.311 -44.311"/>
	</g>
	<g>
		<g>
			<g>
				<path fill="#427585" d="m 402.698 121.441 c -23.769 0 -43.037 19.269 -43.037 43.037 c 0 23.769 19.269 43.037 43.037 43.037 s 43.037 -19.268 43.037 -43.037 c 0.000995636 -23.768 -19.268 -43.037 -43.037 -43.037 z m 0 66.36 c -12.88 0 -23.322 -10.442 -23.322 -23.323 c 0 -12.88 10.442 -23.322 23.322 -23.322 c 12.881 0 23.323 10.442 23.323 23.322 c -1.90735e-06 12.881 -10.442 23.323 -23.323 23.323 z"/>
			</g>
		</g>
		<g>
			<path fill="#427585" d="m 417.602 188.64 v 28.344 c 0 6.06 -4.912 10.972 -10.972 10.972 h -7.863 c -6.06 0 -10.972 -4.912 -10.972 -10.972 v -28.344"/>
			<path fill="#427585" d="m 387.795 140.317 v -28.344 c 0 -6.06 4.912 -10.972 10.972 -10.972 h 7.863 c 6.06 0 10.972 4.912 10.972 10.972 v 28.344"/>
		</g>
		<g>
			<path fill="#427585" d="m 427.199 149.575 h 28.344 c 6.06 0 10.972 4.913 10.972 10.972 v 7.863 c 0 6.06 -4.912 10.972 -10.972 10.972 h -28.344"/>
			<path fill="#427585" d="m 378.198 179.382 h -28.344 c -6.06 0 -10.972 -4.912 -10.972 -10.972 v -7.863 c 0 -6.059 4.912 -10.972 10.972 -10.972 h 28.344"/>
		</g>
		<path fill="#427585" d="m 408.373 136.284 l 20.042 -20.042 c 4.285 -4.285 11.232 -4.285 15.516 0 l 5.56 5.56 c 4.285 4.284 4.285 11.232 0 15.516 l -20.042 20.042"/>
		<path fill="#427585" d="m 429.45 171.198 l 20.042 20.043 c 4.285 4.284 4.285 11.232 0 15.516 l -5.56 5.56 c -4.285 4.285 -11.232 4.285 -15.516 0 l -20.042 -20.043"/>
		<path fill="#427585" d="m 375.495 157.361 l -20.042 -20.042 c -4.285 -4.285 -4.285 -11.232 0 -15.516 l 5.56 -5.56 c 4.285 -4.285 11.232 -4.285 15.516 0 l 20.043 20.042"/>
		<path fill="#427585" d="m 396.572 192.275 l -20.043 20.043 c -4.285 4.285 -11.232 4.285 -15.516 0 l -5.56 -5.56 c -4.285 -4.285 -4.285 -11.232 0 -15.516 l 20.042 -20.043"/>
	</g>
</g>
<g>
</g>
<g>
</g>
<g>
</g>
<g>
</g>
<g>
</g>
<g>
</g>
</svg>
