<svg xmlns="http://www.w3.org/2000/svg" xmlns:xlink="http://www.w3.org/1999/xlink" version="1.1" id="Layer_1" x="0px" y="0px" width="512px" height="512px" viewBox="0 0 512 512" enable-background="new 0 0 512 512" xml:space="preserve" xmlns:xml="http://www.w3.org/XML/1998/namespace">
<g>
	<path fill="#ACACAC" d="m 455.706 238.275 c 0 -33.507 -32.3 -60.67 -72.145 -60.67 c -9.109 0 -17.79 1.479 -25.815 4.07 c 1.779 -5.567 2.759 -11.492 2.759 -17.649 c 0 -32.002 -25.943 -57.944 -57.944 -57.944 c -13.347 0 -25.604 4.559 -35.4 12.142 c -17.585 -21.569 -47.386 -35.754 -81.192 -35.754 c -54.055 0 -97.875 36.265 -97.875 81 c 0 7.481 1.251 14.716 3.545 21.594 c -42.709 2.264 -76.67 37.508 -76.67 80.781 c 0 44.735 36.265 81 81 81 c 13.171 0 25.569 -3.212 36.562 -8.79 c 10.993 5.578 23.391 8.79 36.562 8.79 c 12.283 0 23.882 -2.813 34.312 -7.706 c 10.43 4.893 22.03 7.706 34.312 7.706 c 13.284 0 25.786 -3.26 36.848 -8.928 c 11.063 5.668 23.565 8.928 36.849 8.928 c 32.96 0 61.266 -19.718 73.913 -47.974 c 39.022 -0.797995 70.379 -27.59 70.379 -60.596 z"/>
</g>
<g>
</g>
<g>
</g>
<g>
</g>
<g>
</g>
<g>
</g>
<g>
</g>
</svg>
