<?xml version="1.0" encoding="utf-8"?>
<!-- Generator: Adobe Illustrator 16.0.0, SVG Export Plug-In . SVG Version: 6.00 Build 0)  -->
<!DOCTYPE svg PUBLIC "-//W3C//DTD SVG 1.1//EN" "http://www.w3.org/Graphics/SVG/1.1/DTD/svg11.dtd">
<svg version="1.1" id="Layer_1" xmlns="http://www.w3.org/2000/svg" xmlns:xlink="http://www.w3.org/1999/xlink" x="0px" y="0px"
	 width="512px" height="512px" viewBox="0 0 512 512" enable-background="new 0 0 512 512" xml:space="preserve">
<g>
	<g>
		<g>
			<ellipse fill="#427585" cx="229.016" cy="374.219" rx="164.593" ry="32.992"/>
			<ellipse fill="#427585" cx="229.016" cy="267.456" rx="164.593" ry="32.992"/>
			<g>
				<ellipse fill="#427585" cx="229.016" cy="160.694" rx="164.593" ry="32.993"/>
				<ellipse fill="#427585" cx="229.016" cy="89.519" rx="164.593" ry="32.992"/>
				<rect x="64.424" y="89.519" fill="#427585" width="329.187" height="71.175"/>
			</g>
			<g>
				<g>
					<path fill="#427585" d="M229.016,229.274c-90.902,0-164.593-14.771-164.593-32.993v71.176h329.187v-71.176
						C393.609,214.503,319.918,229.274,229.016,229.274z"/>
				</g>
			</g>
			<g>
				<g>
					<path fill="#427585" d="M229.016,336.037c-90.902,0-164.593-14.771-164.593-32.993v71.175h329.187v-71.175
						C393.609,321.266,319.918,336.037,229.016,336.037z"/>
				</g>
			</g>
		</g>
	</g>
	<g>
		<g>
			<g>
				<ellipse fill="#427585" cx="229.016" cy="374.219" rx="164.593" ry="32.992"/>
				<ellipse fill="#427585" cx="229.016" cy="267.456" rx="164.593" ry="32.992"/>
				<g>
					<ellipse fill="#427585" cx="229.016" cy="160.694" rx="164.593" ry="32.993"/>
					<ellipse fill="#427585" cx="229.016" cy="89.519" rx="164.593" ry="32.992"/>
					<rect x="64.424" y="89.519" fill="#427585" width="329.187" height="71.175"/>
				</g>
				<g>
					<g>
						<path fill="#427585" d="M229.016,229.274c-90.902,0-164.593-14.771-164.593-32.993v71.176h329.187v-71.176
							C393.609,214.503,319.918,229.274,229.016,229.274z"/>
					</g>
				</g>
				<g>
					<g>
						<path fill="#427585" d="M229.016,336.037c-90.902,0-164.593-14.771-164.593-32.993v71.175h329.187v-71.175
							C393.609,321.266,319.918,336.037,229.016,336.037z"/>
					</g>
				</g>
			</g>
			<g>
				<polygon fill="#427585" points="422.834,324.566 344.304,255.982 344.304,393.146 				"/>
			</g>
			<rect x="280.091" y="297.758" fill="#427585" width="62.999" height="52.874"/>
			<rect x="213.167" y="297.342" fill="#427585" width="62.999" height="52.874"/>
		</g>
		<g>
			<g>
				<ellipse fill="#B6D8DF" cx="229.016" cy="374.219" rx="164.593" ry="32.992"/>
				<ellipse fill="#B6D8DF" cx="229.016" cy="267.456" rx="164.593" ry="32.992"/>
				<g>
					<ellipse fill="#B6D8DF" cx="229.016" cy="160.694" rx="164.593" ry="32.993"/>
					<ellipse fill="#B6D8DF" cx="229.016" cy="89.519" rx="164.593" ry="32.992"/>
					<rect x="64.424" y="89.519" fill="#B6D8DF" width="329.187" height="71.175"/>
				</g>
				<g>
					<g>
						<path fill="#B6D8DF" d="M229.016,229.274c-90.902,0-164.593-14.771-164.593-32.993v71.176h329.187v-71.176
							C393.609,214.503,319.918,229.274,229.016,229.274z"/>
					</g>
				</g>
				<g>
					<g>
						<path fill="#B6D8DF" d="M229.016,336.037c-90.902,0-164.593-14.771-164.593-32.993v71.175h329.187v-71.175
							C393.609,321.266,319.918,336.037,229.016,336.037z"/>
					</g>
				</g>
			</g>
			<g>
				<polygon fill="#427585" points="422.834,324.566 344.304,255.982 344.304,393.146 				"/>
			</g>
			<rect x="280.091" y="297.758" fill="#427585" width="62.999" height="52.874"/>
			<rect x="213.167" y="297.342" fill="#427585" width="62.999" height="52.874"/>
		</g>
	</g>
</g>
</svg>
